<svg width="42" height="40" viewBox="0 0 42 40" fill="none" xmlns="http://www.w3.org/2000/svg">
<path d="M27.6666 10.378C27.6666 6.80699 24.5974 3.91211 20.8113 3.91211C17.0252 3.91211 13.9559 6.80699 13.9559 10.378V20.0768C13.9559 23.6479 17.0252 26.5427 20.8113 26.5427C24.5974 26.5427 27.6666 23.6479 27.6666 20.0768V10.378Z" stroke="#643F24" stroke-width="3" stroke-linecap="round" stroke-linejoin="round"/>
<path d="M8.81445 17.6521V20.0768C8.81445 26.3261 14.1856 31.3921 20.8113 31.3921C27.437 31.3921 32.8082 26.3261 32.8082 20.0768V17.6521" stroke="#643F24" stroke-width="3" stroke-linecap="round" stroke-linejoin="round"/>
<path d="M20.8113 4.72034V9.56976" stroke="#643F24" stroke-width="3" stroke-linecap="round" stroke-linejoin="round"/>
<path d="M13.9559 13.611H18.2405" stroke="#643F24" stroke-width="3" stroke-linecap="round" stroke-linejoin="round"/>
<path d="M23.3821 13.611H27.6667" stroke="#643F24" stroke-width="3" stroke-linecap="round" stroke-linejoin="round"/>
<path d="M13.9559 18.4603H18.2405" stroke="#643F24" stroke-width="3" stroke-linecap="round" stroke-linejoin="round"/>
<path d="M23.3821 18.4603H27.6667" stroke="#643F24" stroke-width="3" stroke-linecap="round" stroke-linejoin="round"/>
<path d="M20.8113 31.3922V36.2416" stroke="#643F24" stroke-width="3"/>
<path d="M13.9559 36.2416H27.6666" stroke="#643F24" stroke-width="3" stroke-linecap="round" stroke-linejoin="round"/>
</svg>
